HIERARCHY
ROOT Hips
{
 OFFSET 0.000000 0.000000 0.000000
 CHANNELS 6 Xposition Yposition Zposition Yrotation Xrotation Zrotation
 JOINT Chest
 {
  OFFSET 0.000000 9.857222 0.000240
  CHANNELS 3 Yrotation Xrotation Zrotation
  JOINT Chest2
  {
   OFFSET 0.000000 10.876940 -0.000436
   CHANNELS 3 Yrotation Xrotation Zrotation
   JOINT Chest3
   {
    OFFSET 0.000000 9.827798 0.000000
    CHANNELS 3 Yrotation Xrotation Zrotation
    JOINT Chest4
    {
     OFFSET 0.000000 9.827798 0.000000
     CHANNELS 3 Yrotation Xrotation Zrotation
     JOINT Neck
     {
      OFFSET 0.000000 13.831992 0.000000
      CHANNELS 3 Yrotation Xrotation Zrotation
      JOINT Head
      {
       OFFSET 0.000000 9.147643 -0.001036
       CHANNELS 3 Yrotation Xrotation Zrotation
       End Site
       {
        OFFSET 0.000000 17.515799 -0.000541
       }
      }
     }
     JOINT RightCollar
     {
      OFFSET -3.001579 7.717577 0.000000
      CHANNELS 3 Yrotation Xrotation Zrotation
      JOINT RightShoulder
      {
       OFFSET -14.002642 0.000000 0.000000
       CHANNELS 3 Yrotation Xrotation Zrotation
       JOINT RightElbow
       {
        OFFSET -30.053852 0.000000 0.000000
        CHANNELS 3 Yrotation Xrotation Zrotation
        JOINT RightWrist
        {
         OFFSET -24.564923 0.000000 -0.000000
         CHANNELS 3 Yrotation Xrotation Zrotation
         End Site
         {
          OFFSET -18.334355 0.000000 0.000000
         }
        }
       }
      }
     }
     JOINT LeftCollar
     {
      OFFSET 3.001579 7.717577 0.000000
      CHANNELS 3 Yrotation Xrotation Zrotation
      JOINT LeftShoulder
      {
       OFFSET 14.002642 0.000000 0.000000
       CHANNELS 3 Yrotation Xrotation Zrotation
       JOINT LeftElbow
       {
        OFFSET 30.053852 0.000000 0.000000
        CHANNELS 3 Yrotation Xrotation Zrotation
        JOINT LeftWrist
        {
         OFFSET 24.564923 0.000000 -0.000000
         CHANNELS 3 Yrotation Xrotation Zrotation
         End Site
         {
          OFFSET 18.334355 0.000000 0.000000
         }
        }
       }
      }
     }
    }
   }
  }
 }
 JOINT RightHip
 {
  OFFSET -8.003235 -0.001175 -0.000120
  CHANNELS 3 Yrotation Xrotation Zrotation
  JOINT RightKnee
  {
   OFFSET 0.000000 -41.759727 0.000113
   CHANNELS 3 Yrotation Xrotation Zrotation
   JOINT RightAnkle
   {
    OFFSET 0.000000 -40.728748 0.000159
    CHANNELS 3 Yrotation Xrotation Zrotation
    JOINT RightToe
    {
     OFFSET 0.000000 -6.515296 14.732841
     CHANNELS 3 Yrotation Xrotation Zrotation
     End Site
     {
      OFFSET 0.000000 -1.502839 6.412115
     }
    }
   }
  }
 }
 JOINT LeftHip
 {
  OFFSET 8.003235 -0.001175 -0.000120
  CHANNELS 3 Yrotation Xrotation Zrotation
  JOINT LeftKnee
  {
   OFFSET 0.000000 -41.759727 0.000113
   CHANNELS 3 Yrotation Xrotation Zrotation
   JOINT LeftAnkle
   {
    OFFSET 0.000000 -40.728748 0.000159
    CHANNELS 3 Yrotation Xrotation Zrotation
    JOINT LeftToe
    {
     OFFSET 0.000000 -6.515296 14.732841
     CHANNELS 3 Yrotation Xrotation Zrotation
     End Site
     {
      OFFSET 0.000000 -1.502839 6.412115
     }
    }
   }
  }
 }
}
MOTION
Frames: 12
Frame Time: 0.016667
0.000000 88.822259 0.000000 0.000000 -5.826342 0.000000 0.000000 11.116423 0.000000 0.000000 -5.290081 0.000000 0.000000 0.000000 0.000000 0.000000 0.000000 0.000000 0.000000 12.665069 0.000000 0.000000 0.575450 0.000000 0.000000 0.000000 0.000000 0.000000 0.000000 0.000000 2.337306 0.000000 0.000000 -2.337306 0.000000 0.000000 0.000000 0.000000 0.000000 0.000000 0.000000 0.000000 -2.337306 0.000000 0.000000 2.337306 0.000000 0.000000 0.000000 8.578828 0.000000 0.000000 1.905768 0.000000 0.000000 -4.658254 0.000000 0.000000 0.000000 0.000000 0.000000 8.578828 0.000000 0.000000 1.905768 0.000000 0.000000 -4.658254 0.000000 0.000000 0.000000 0.000000
14.617443 89.335505 15.677628 -27.677814 -24.944269 -0.182705 -0.501097 9.552685 0.270587 -0.148629 4.221454 0.168128 -0.148629 4.221454 0.168128 -0.112585 3.166050 0.127067 -9.655833 22.310377 3.230457 -18.297864 6.266463 8.399347 7.942756 14.996238 1.114873 90.647797 10.278711 -3.757000 2.556657 9.152201 -3.652381 -1.400109 5.905802 -0.672977 -24.493913 19.835134 -6.512493 -63.485397 -9.750270 14.971206 -7.294225 14.146627 2.513858 1.291615 2.990431 2.702032 -4.939693 26.278740 -13.031580 -6.816709 1.774050 3.732205 -0.104978 -2.581168 4.538418 -0.132152 0.157520 -0.065128 -11.119492 18.845334 5.727359 21.949433 18.802846 2.948205 -4.649669 -7.257686 -7.772458 0.103329 0.046771 0.042360
14.616589 89.335181 15.675333 -27.651783 -24.911288 -0.185252 -0.507220 9.508304 0.273139 -0.151568 4.203830 0.169571 -0.151568 4.203830 0.169571 -0.114794 3.152831 0.128165 -9.640761 22.323765 3.218851 -18.266302 6.286797 8.372834 7.933610 15.032386 1.098175 90.632886 10.288224 -3.727628 2.574997 9.142543 -3.661889 -1.403495 5.887665 -0.745001 -24.495851 19.871489 -6.518309 -63.499630 -9.817779 14.935395 -7.269418 14.225564 2.536896 1.309984 2.960600 2.752653 -4.953371 26.244527 -13.038132 -6.819630 1.779630 3.739220 -0.083965 -2.576189 4.539839 -0.136269 0.149869 -0.067118 -11.103747 18.807446 5.736611 21.979165 18.790017 2.971093 -4.695827 -7.243071 -7.778229 0.112811 0.044991 0.045864
14.614084 89.335018 15.669166 -27.627328 -24.867843 -0.192471 -0.507032 9.451090 0.279122 -0.154122 4.181200 0.169452 -0.154122 4.181200 0.169452 -0.116701 3.135858 0.128089 -9.629199 22.343877 3.207474 -18.240437 6.320086 8.346639 7.930713 15.073338 1.089350 90.626050 10.297773 -3.678299 2.568523 9.141434 -3.673495 -1.416063 5.872450 -0.819119 -24.500708 19.929204 -6.525417 -63.496969 -9.857480 14.907449 -7.260621 14.257072 2.542895 1.323924 2.954652 2.819122 -4.948081 26.207515 -13.020377 -6.838262 1.776404 3.732682 -0.072468 -2.568368 4.543484 -0.138549 0.143973 -0.067879 -11.109625 18.757343 5.754361 22.007149 18.786559 2.985100 -4.734099 -7.227815 -7.785565 0.118843 0.040002 0.048010
14.609143 89.334377 15.661087 -27.599574 -24.817067 -0.195342 -0.514722 9.396809 0.278456 -0.156905 4.157250 0.167602 -0.156905 4.157250 0.167602 -0.118769 3.117895 0.126715 -9.617371 22.360489 3.197381 -18.214796 6.347127 8.323194 7.931098 15.103684 1.084776 90.620860 10.314551 -3.634473 2.556095 9.135133 -3.680925 -1.426444 5.851590 -0.881030 -24.502393 19.979295 -6.523937 -63.491049 -9.863161 14.872074 -7.245435 14.262900 2.561867 1.341954 2.962455 2.872365 -4.957035 26.162465 -13.010561 -6.855456 1.770030 3.726773 -0.060867 -2.566354 4.544970 -0.142647 0.146345 -0.068727 -11.145008 18.698854 5.761272 22.033993 18.791425 2.987962 -4.750861 -7.218434 -7.789305 0.123440 0.036387 0.049885
14.607596 89.333093 15.655071 -27.573063 -24.763471 -0.191372 -0.524703 9.347252 0.272120 -0.160664 4.134530 0.165465 -0.160664 4.134530 0.165465 -0.121567 3.100854 0.125133 -9.606617 22.369853 3.187273 -18.191832 6.360988 8.301044 7.932573 15.122935 1.079117 90.618133 10.332552 -3.598658 2.553859 9.110785 -3.689003 -1.433785 5.823918 -0.917546 -24.494129 20.025260 -6.520284 -63.495714 -9.865255 14.843486 -7.230812 14.294919 2.574030 1.358005 2.948600 2.901687 -4.968761 26.114815 -13.010920 -6.852853 1.763312 3.720858 -0.062392 -2.570169 4.549749 -0.147266 0.152218 -0.069651 -11.166036 18.634659 5.764229 22.024192 18.795561 2.986928 -4.758981 -7.213995 -7.786642 0.120125 0.036113 0.047232
14.607395 89.332084 15.651667 -27.542774 -24.712704 -0.186969 -0.539144 9.308369 0.265361 -0.166638 4.116102 0.163503 -0.166638 4.116102 0.163503 -0.126028 3.087033 0.123698 -9.593277 22.370839 3.181422 -18.166182 6.359794 8.287089 7.939295 15.129291 1.064644 90.611866 10.317595 -3.579051 2.564121 9.100876 -3.689366 -1.440135 5.804300 -0.940349 -24.478537 20.038656 -6.512892 -63.496440 -9.877188 14.801957 -7.218403 14.338901 2.564709 1.369465 2.963337 2.928192 -4.981061 26.070145 -13.015977 -6.846405 1.758665 3.718582 -0.065102 -2.575139 4.554898 -0.151383 0.156785 -0.070872 -11.188881 18.572948 5.760450 22.007760 18.800378 2.983606 -4.742360 -7.210946 -7.783922 0.118800 0.037844 0.046735
14.609911 89.331145 15.649901 -27.518265 -24.659869 -0.181255 -0.549906 9.270350 0.262418 -0.171649 4.099338 0.161911 -0.171649 4.099338 0.161911 -0.129769 3.074459 0.122534 -9.581064 22.369921 3.175566 -18.142750 6.355263 8.273680 7.938261 15.136586 1.045286 90.616085 10.271869 -3.560424 2.561966 9.130996 -3.692352 -1.445860 5.796376 -0.949048 -24.457429 20.059348 -6.502796 -63.517638 -9.891207 14.774754 -7.203636 14.393911 2.561760 1.395664 2.965173 2.940292 -4.981390 26.021878 -13.017850 -6.853050 1.759461 3.714985 -0.063305 -2.581928 4.559567 -0.152747 0.160977 -0.070129 -11.201402 18.507945 5.760147 22.015678 18.806212 2.992811 -4.762642 -7.208288 -7.781644 0.118447 0.037029 0.045341
14.614767 89.330849 15.649532 -27.497375 -24.616086 -0.171965 -0.558287 9.214654 0.253157 -0.175695 4.075300 0.157725 -0.175695 4.075300 0.157725 -0.132769 3.056430 0.119417 -9.568534 22.384506 3.168895 -18.116961 6.379090 8.256495 7.946590 15.188074 1.045637 90.599708 10.275488 -3.542909 2.560530 9.127346 -3.699156 -1.444966 5.777561 -0.953618 -24.443335 20.130764 -6.503838 -63.535778 -9.872578 14.749799 -7.186086 14.394822 2.551432 1.419289 2.963342 2.955068 -4.966417 25.981425 -13.020583 -6.869923 1.767043 3.717947 -0.069815 -2.589175 4.558633 -0.146595 0.163203 -0.066989 -11.200800 18.455207 5.752849 22.007462 18.799973 3.002466 -4.797393 -7.206201 -7.772765 0.112932 0.039158 0.042098
14.613628 89.331497 15.647908 -27.484231 -24.583599 -0.166231 -0.561991 9.184857 0.249188 -0.179186 4.061858 0.153963 -0.179186 4.061858 0.153963 -0.135358 3.046349 0.116617 -9.551085 22.386355 3.167984 -18.085117 6.379753 8.250237 7.952329 15.189235 1.039025 90.579524 10.296485 -3.514633 2.576245 9.079934 -3.711631 -1.451839 5.771836 -0.958835 -24.442301 20.153014 -6.496824 -63.523664 -9.844428 14.726475 -7.190583 14.370279 2.549076 1.458101 2.958595 2.931802 -4.956323 25.953236 -13.021858 -6.873214 1.769671 3.723926 -0.070236 -2.595086 4.554022 -0.146779 0.164228 -0.065074 -11.180267 18.413500 5.757620 21.981845 18.801210 2.995657 -4.723652 -7.191184 -7.777569 0.119472 0.040013 0.047263
14.617524 89.332023 15.646838 -27.466212 -24.544521 -0.161094 -0.574393 9.161282 0.250752 -0.185585 4.051980 0.154184 -0.185585 4.051980 0.154184 -0.140155 3.038939 0.116822 -9.531683 22.379244 3.161046 -18.049086 6.362583 8.233980 7.952309 15.175809 1.007736 90.575791 10.318721 -3.473951 2.575331 9.050111 -3.739646 -1.453593 5.772331 -0.949513 -24.430017 20.152677 -6.500851 -63.521419 -9.831204 14.709820 -7.208191 14.326055 2.537785 1.512629 2.962088 2.898533 -4.932389 25.916250 -13.013500 -6.895517 1.780620 3.719834 -0.073831 -2.601663 4.553896 -0.142251 0.163424 -0.061012 -11.183036 18.364723 5.767202 21.946569 18.812079 2.983564 -4.730077 -7.189155 -7.769539 0.112476 0.034817 0.043825
14.618514 89.332682 15.644400 -27.452418 -24.506819 -0.155817 -0.573122 9.136063 0.258236 -0.187111 4.041139 0.155582 -0.187111 4.041139 0.155582 -0.141306 3.030807 0.117877 -9.520147 22.373448 3.150882 -18.026241 6.348437 8.213718 7.926091 15.182481 0.980350 90.573531 10.361475 -3.448526 2.566492 9.029533 -3.759376 -1.445680 5.755282 -0.923399 -24.433558 20.150433 -6.500456 -63.535223 -9.856235 14.670216 -7.250225 14.315303 2.544337 1.557909 2.913608 2.857326 -4.898926 25.883645 -12.997508 -6.926636 1.787452 3.713872 -0.077050 -2.607270 4.551301 -0.136982 0.163716 -0.056704 -11.187202 18.317028 5.766954 21.908183 18.819638 2.973500 -4.732547 -7.192227 -7.757930 0.109702 0.035314 0.041748
